<svg height="152" version="1.1" width="152" xmlns="http://www.w3.org/2000/svg" xmlns:xlink="http://www.w3.org/1999/xlink" style="overflow: hidden; position: relative; left: -0.5px;" viewBox="0 0 320 320" preserveAspectRatio="xMidYMid meet" id="main_svg"><svg height="320" version="1.1" width="320" xmlns="http://www.w3.org/2000/svg" xmlns:xlink="http://www.w3.org/1999/xlink" style="overflow: hidden; position: relative;" viewBox="0 0 160 160" preserveAspectRatio="xMidYMid meet" id="imported_svg_layer_1"><path fill="url(#gradient_acx555c1t8knyhsh31bqwq)" stroke="none" d="M0,80A80,80,0,1,0,160,80A80,80,0,1,0,0,80" stroke-width="0" opacity="1" fill-opacity="1" transform="matrix(1,0,0,1,0,0)" style="-webkit-tap-highlight-color: rgba(0, 0, 0, 0); opacity: 1; fill-opacity: 1; display: none;"></path><desc style="-webkit-tap-highlight-color: rgba(0, 0, 0, 0);">Created with Logotizer</desc><defs style="-webkit-tap-highlight-color: rgba(0, 0, 0, 0);"><linearGradient id="gradient_acx555c1t8knyhsh31bqwq" x1="1.8369701987210297e-16" y1="0" x2="0" y2="1" style="-webkit-tap-highlight-color: rgba(0, 0, 0, 0);"><stop offset="0%" stop-color="#f0f3c1" stop-opacity="1" style="-webkit-tap-highlight-color: rgba(0, 0, 0, 0);"></stop><stop offset="100%" stop-color="#585900" stop-opacity="1" style="-webkit-tap-highlight-color: rgba(0, 0, 0, 0);"></stop></linearGradient></defs></svg><svg height="320" version="1.1" width="320" xmlns="http://www.w3.org/2000/svg" xmlns:xlink="http://www.w3.org/1999/xlink" style="overflow: hidden; position: relative;" viewBox="0 0 160 160" preserveAspectRatio="xMidYMid meet" id="imported_svg_layer_2"><desc style="-webkit-tap-highlight-color: rgba(0, 0, 0, 0);">Created with Logotizer</desc><defs style="-webkit-tap-highlight-color: rgba(0, 0, 0, 0);"><linearGradient id="gradient_s75ephe7umjj6t3yhfo5e" x1="1.8369701987210297e-16" y1="0" x2="0" y2="1" style="-webkit-tap-highlight-color: rgba(0, 0, 0, 0);"><stop offset="0%" stop-color="#0808cd" stop-opacity="1" style="-webkit-tap-highlight-color: rgba(0, 0, 0, 0);"></stop><stop offset="100%" stop-color="#7ae8f7" stop-opacity="1" style="-webkit-tap-highlight-color: rgba(0, 0, 0, 0);"></stop></linearGradient></defs><path fill="url(#gradient_s75ephe7umjj6t3yhfo5e)" stroke="#1613b8" d="M136.7,87.3L125,124.9C124,125,123,125,122,125C113,125,105.1,121.5,101,116.2C96.9,121.4,89,125,80,125C70.6,125,62.4,121.2,58.5,115.6C54.6,121.19999999999999,46.4,125,37,125C36.3,125,35.7,125,35,124.9V125C34.7,125,34.4,125.1,34.1,125.2L22.3,87.3C21.400000000000002,84,22.900000000000002,80.39999999999999,25.900000000000002,78.7L76.2,51.900000000000006C78.3,50.800000000000004,80.8,50.800000000000004,83,51.900000000000006L133.3,78.7C136.20000000000002,80.4,137.60000000000002,83.9,136.70000000000002,87.3ZM108,30.1H80V30H52V53.7L39,60.7V24C39,20.7,41.7,18,45,18H115C118.3,18,121,20.7,121,24V61L108,53.9V30.1ZM35,136H37C46.4,136,54.6,132.2,58.5,126.6C62.4,132.2,70.6,136,80,136C89,136,96.9,132.5,101,127.2C105.1,132.4,113,136,122,136C123,136,124,135.9,125,135.9V136.1C127.8,136.4,130,139.2,130,142.6C130,146.2,127.5,149.1,124.5,149.1C124.3,149.1,124,149.1,123.8,149C123.2,149,122.6,149.1,122,149.1C113,149.1,105.1,145.6,101,140.29999999999998C96.9,145.49999999999997,89,149.1,80,149.1C70.6,149.1,62.4,145.29999999999998,58.5,139.7C54.6,145.29999999999998,46.4,149.1,37,149.1H35.5C32.5,149.1,30,146.2,30,142.6C30,139.1,32.2,136.29999999999998,35,136Z" stroke-width="2.1739130434782608" transform="matrix(0.92,0,0,0.92,6.3604,6.684)" style="-webkit-tap-highlight-color: rgba(0, 0, 0, 0); cursor: move; opacity: 1; fill-opacity: 1;" opacity="1" fill-opacity="1"></path></svg><desc style="-webkit-tap-highlight-color: rgba(0, 0, 0, 0);">Created with Logotizer</desc><defs style="-webkit-tap-highlight-color: rgba(0, 0, 0, 0);"></defs><text x="0" y="0" text-anchor="middle" font-family="bitter" font-size="240px" stroke="none" fill="#b3a983" style="-webkit-tap-highlight-color: rgba(0, 0, 0, 0); text-anchor: middle; font-family: bitter; font-size: 240px; cursor: move; opacity: 1; display: none;" transform="matrix(1,0,0,1,160,244.0234)" opacity="1"><tspan dy="0" style="-webkit-tap-highlight-color: rgba(0, 0, 0, 0);">L</tspan></text></svg>
