<svg xmlns="http://www.w3.org/2000/svg" xmlns:xlink="http://www.w3.org/1999/xlink"><symbol id="icon-boat" viewBox="0 0 38 13">
<path d="M35.7879 10.4485L1.42308 6.99263C1.15901 6.96606 0.981029 7.22155 1.11781 7.42503C3.31425 10.6949 8.51389 13 14.5667 13H35.0671C35.2065 13 35.3287 12.9192 35.3699 12.8005L36.0551 10.8125C36.1134 10.6435 35.9849 10.4683 35.7879 10.4485Z" fill="#011C40"/>
<path d="M37.9001 4.78198C37.7994 4.64181 37.6353 4.54855 37.4511 4.52649L27.951 3.39598C27.6084 3.35584 27.286 3.57231 27.2392 3.88152C27.1924 4.19072 27.4368 4.47562 27.7832 4.51682L28.8586 4.6446C29.0157 4.66328 29.1335 4.7831 29.1335 4.92439V5.79829C29.1335 5.96614 28.9701 6.09729 28.7832 6.07921L26.2499 5.83671C26.0891 5.822 25.9669 5.70045 25.9669 5.55631V3.08227C25.9669 3.0263 25.9852 2.97205 26.0201 2.92568L27.1271 1.44365C27.2538 1.27407 27.2684 1.05701 27.1658 0.875578C27.0625 0.693552 26.858 0.574852 26.63 0.565247L13.33 2.65797e-05C13.1165 -0.00169564 12.9094 0.0803087 12.7847 0.236302C12.7847 0.236302 10.2539 3.41069 9.69909 4.10932C9.63259 4.19298 9.52111 4.23762 9.40711 4.22629L0.700479 3.39433C0.520646 3.37737 0.343263 3.42884 0.209669 3.53562C0.0766682 3.64306 0 3.79567 0 3.95617C0 4.50052 0.0791917 5.03408 0.228669 5.55188C0.261622 5.66607 0.373099 5.74914 0.50417 5.76272L36.2857 9.36103C36.437 9.37627 36.5789 9.29321 36.6239 9.16318L37.9723 5.25281C38.0267 5.09403 38.0001 4.92161 37.9001 4.78198ZM18.2768 1.65111L17.7828 4.73846C17.7588 4.88822 17.6099 4.99507 17.4408 4.97983C16.2052 4.86848 11.5628 4.4327 11.5628 4.4327C11.3221 4.40951 11.198 4.16363 11.3386 3.9873L13.5141 1.26904C13.5768 1.19101 13.6794 1.14636 13.7871 1.15093L17.9785 1.32899C18.1647 1.33687 18.3034 1.48604 18.2768 1.65111ZM25.1428 2.06318L24.7533 2.58323C24.7185 2.6296 24.7001 2.68438 24.7001 2.74035V5.37495C24.7001 5.5428 24.5367 5.67396 24.3498 5.65587L19.3237 5.17544C19.1457 5.15848 19.0184 5.01262 19.0437 4.85438L19.556 1.65343C19.5788 1.50929 19.7213 1.40417 19.8848 1.41092L24.8945 1.62402C25.1403 1.63415 25.2796 1.88003 25.1428 2.06318ZM32.9334 6.16174C32.9334 6.32959 32.77 6.46074 32.5832 6.44266C32.5832 6.44266 31.2684 6.31038 30.6794 6.24825C30.5198 6.23189 30.4001 6.11087 30.4001 5.96786V5.15053C30.4001 4.97983 30.5686 4.84755 30.7586 4.87014L32.6586 5.09622C32.8156 5.11543 32.9334 5.23525 32.9334 5.37661V6.16174ZM36.4314 5.87797L36.1964 6.55851C36.1521 6.68742 36.0108 6.77048 35.8601 6.75637L34.4826 6.62469C34.3224 6.60945 34.2001 6.4879 34.2001 6.34377V5.60328C34.2001 5.43258 34.3686 5.3003 34.5586 5.32289L36.1704 5.51452C36.3642 5.5377 36.489 5.71072 36.4314 5.87797Z" fill="#011C40"/>
</symbol><symbol id="icon-check" viewBox="0 0 33 19">
<path d="M24.9701 2.0041L22.9608 0L13.9583 8.98658L15.9675 10.9907L24.9701 2.0041ZM30.9978 0L15.9604 14.9918L10.0392 9.08572L8.02991 11.0898L15.9604 19L33 2.0041L30.9978 0ZM0 11.0898L7.93051 19L9.93976 16.9959L2.00925 9.08572L0 11.0898Z" fill="#011C40"/>
</symbol><symbol id="icon-cross" viewBox="0 0 15 15">
<path d="M1 1L7.5 7.5M14 14L7.5 7.5M7.5 7.5L14 1L1 14" stroke-width="2"/>
</symbol><symbol id="icon-fb" viewBox="0 0 11 20">
<path d="M7.31035 11.5H9.92118L10.9655 7.5H7.31035V5.5C7.31035 4.47 7.31035 3.5 9.39902 3.5H10.9655V0.14C10.6251 0.0970001 9.33949 0 7.98185 0C5.14648 0 3.13301 1.657 3.13301 4.7V7.5H0V11.5H3.13301V20H7.31035V11.5Z"/>
</symbol><symbol id="icon-form-check" viewBox="0 0 12 8">
<path d="M1 2.5L5.28571 7L11 1"/>
</symbol><symbol id="icon-inst" viewBox="0 0 21 20">
<path d="M10.7357 0C13.3839 0 13.7144 0.00999994 14.7534 0.0599999C15.7915 0.11 16.4982 0.277 17.12 0.525C17.7633 0.779 18.3053 1.123 18.8472 1.678C19.3428 2.1779 19.7264 2.78259 19.9711 3.45C20.2118 4.087 20.3756 4.813 20.4243 5.878C20.4701 6.944 20.4828 7.283 20.4828 10C20.4828 12.717 20.473 13.056 20.4243 14.122C20.3756 15.187 20.2118 15.912 19.9711 16.55C19.7271 17.2178 19.3435 17.8226 18.8472 18.322C18.3598 18.8303 17.7705 19.2238 17.12 19.475C16.4991 19.722 15.7915 19.89 14.7534 19.94C13.7144 19.987 13.3839 20 10.7357 20C8.08736 20 7.75693 19.99 6.71789 19.94C5.67982 19.89 4.97315 19.722 4.35128 19.475C3.70049 19.2245 3.11099 18.8309 2.62409 18.322C2.12836 17.8222 1.74484 17.2175 1.50025 16.55C1.25852 15.913 1.09574 15.187 1.04701 14.122C1.0012 13.056 0.988525 12.717 0.988525 10C0.988525 7.283 0.998272 6.944 1.04701 5.878C1.09574 4.812 1.25852 4.088 1.50025 3.45C1.74416 2.78218 2.12777 2.17732 2.62409 1.678C3.11113 1.16923 3.70059 0.775729 4.35128 0.525C4.97315 0.277 5.67884 0.11 6.71789 0.0599999C7.75693 0.0129999 8.08736 0 10.7357 0ZM10.7357 5C9.4431 5 8.20349 5.52678 7.28952 6.46447C6.37555 7.40215 5.86209 8.67392 5.86209 10C5.86209 11.3261 6.37555 12.5979 7.28952 13.5355C8.20349 14.4732 9.4431 15 10.7357 15C12.0282 15 13.2678 14.4732 14.1818 13.5355C15.0958 12.5979 15.6092 11.3261 15.6092 10C15.6092 8.67392 15.0958 7.40215 14.1818 6.46447C13.2678 5.52678 12.0282 5 10.7357 5ZM17.0713 4.75C17.0713 4.41848 16.9429 4.10054 16.7144 3.86612C16.4859 3.6317 16.176 3.5 15.8529 3.5C15.5298 3.5 15.2199 3.6317 14.9914 3.86612C14.7629 4.10054 14.6345 4.41848 14.6345 4.75C14.6345 5.08152 14.7629 5.39946 14.9914 5.63388C15.2199 5.8683 15.5298 6 15.8529 6C16.176 6 16.4859 5.8683 16.7144 5.63388C16.9429 5.39946 17.0713 5.08152 17.0713 4.75ZM10.7357 7C11.5112 7 12.2549 7.31607 12.8033 7.87868C13.3517 8.44129 13.6598 9.20435 13.6598 10C13.6598 10.7956 13.3517 11.5587 12.8033 12.1213C12.2549 12.6839 11.5112 13 10.7357 13C9.96012 13 9.21636 12.6839 8.66797 12.1213C8.11959 11.5587 7.81151 10.7956 7.81151 10C7.81151 9.20435 8.11959 8.44129 8.66797 7.87868C9.21636 7.31607 9.96012 7 10.7357 7Z"/>
</symbol><symbol id="icon-logo" viewBox="0 0 70 38">
<g>
<path fill-rule="evenodd" clip-rule="evenodd" d="M0.903517 31.125L14.6726 12.5429L18.4395 14.556L27.4026 0L32.9879 6.65881L35.0665 4.95532L43.1199 15.1755L48.8355 8.36191L64.8126 31.125L49.42 11.7689L47.0817 19.8984L49.225 26.3249L35.456 7.35558L35.3069 13.8279L43.1199 31.125L28.5064 4.33574L32.7282 18.8145L26.8181 4.72292L23.5706 14.0916L24.2198 7.97472L16.1013 30.0411L17.0753 20.75L13.6981 17.0338L0.903517 31.125Z"/>
<path fill-rule="evenodd" clip-rule="evenodd" d="M69.4414 34.0314C47.641 16.428 13.7091 40.6289 0 31.2961C15.0723 44.5215 50.3019 22.1644 69.4414 34.0314Z"/>
<path fill-rule="evenodd" clip-rule="evenodd" d="M70 35.4157C52.8956 24.5171 27.4568 39.6838 14.4189 36.1717C28.5467 43.0283 54.8482 27.8361 70 35.4157Z"/>
</g>
</symbol><symbol id="icon-map-pin" viewBox="0 0 18 22">
<path d="M15.364 15.5563L9 22L2.636 15.5563C1.37734 14.2819 0.520187 12.6581 0.172928 10.8905C-0.17433 9.12277 0.00390685 7.29051 0.685099 5.62539C1.36629 3.96027 2.51984 2.53707 3.99988 1.53576C5.47992 0.534448 7.21998 0 9 0C10.78 0 12.5201 0.534448 14.0001 1.53576C15.4802 2.53707 16.6337 3.96027 17.3149 5.62539C17.9961 7.29051 18.1743 9.12277 17.8271 10.8905C17.4798 12.6581 16.6227 14.2819 15.364 15.5563ZM9 11.1377C9.53044 11.1377 10.0391 10.9243 10.4142 10.5445C10.7893 10.1648 11 9.64969 11 9.11262C11 8.57554 10.7893 8.06047 10.4142 7.6807C10.0391 7.30093 9.53044 7.08757 9 7.08757C8.46957 7.08757 7.96086 7.30093 7.58579 7.6807C7.21072 8.06047 7 8.57554 7 9.11262C7 9.64969 7.21072 10.1648 7.58579 10.5445C7.96086 10.9243 8.46957 11.1377 9 11.1377Z"/>
</symbol><symbol id="icon-menu" viewBox="0 0 24 14">
<path d="M0 1H24M0 7H24M0 13H24" stroke-width="2"/>
</symbol><symbol id="icon-phone" viewBox="0 0 18 18">
<path d="M18 13.42V16.956C18.0001 17.2092 17.9042 17.453 17.7316 17.6382C17.559 17.8234 17.3226 17.9363 17.07 17.954C16.633 17.984 16.276 18 16 18C7.163 18 0 10.837 0 2C0 1.724 0.015 1.367 0.046 0.93C0.0637224 0.677444 0.176581 0.441011 0.361804 0.268409C0.547026 0.0958068 0.790823 -0.000114433 1.044 2.56579e-07H4.58C4.70404 -0.000125334 4.8237 0.045859 4.91573 0.12902C5.00776 0.212182 5.0656 0.326583 5.078 0.45C5.101 0.68 5.122 0.863 5.142 1.002C5.34073 2.38892 5.748 3.73783 6.35 5.003C6.445 5.203 6.383 5.442 6.203 5.57L4.045 7.112C5.36445 10.1865 7.81455 12.6365 10.889 13.956L12.429 11.802C12.4919 11.714 12.5838 11.6509 12.6885 11.6237C12.7932 11.5964 12.9042 11.6068 13.002 11.653C14.267 12.2539 15.6156 12.6601 17.002 12.858C17.141 12.878 17.324 12.9 17.552 12.922C17.6752 12.9346 17.7894 12.9926 17.8724 13.0846C17.9553 13.1766 18.0012 13.2961 18.001 13.42H18Z"/>
</symbol><symbol id="icon-ship" viewBox="0 0 21 26">
<path d="M3.42649 13.3219L10.2795 8.0728C10.4348 7.96762 10.6331 7.96762 10.7884 8.0728L17.6753 13.3219V7.05914C17.713 6.20035 17.0911 5.47162 16.2864 5.43143C16.2744 5.43081 16.2625 5.43039 16.2505 5.43011H4.85138C4.04591 5.44917 3.4074 6.16134 3.42525 7.0209C3.42551 7.03365 3.4259 7.0464 3.42649 7.05914V13.3219Z" fill="#011C40"/>
<path d="M12.2472 0H8.85464V4.34413H12.2472V0Z" fill="#011C40"/>
<path d="M18.8966 24.5081L21 17.0869L18.0485 14.8786L17.8449 14.7701L10.8901 9.59332V24.8701H10.5169L9.87229 24.8339V9.59332L0 17.0869L2.17127 24.4719L3.42525 25.9922C3.42525 25.9922 4.48187 25.9922 5.56747 25.9922C5.56747 25.9922 9.52521 25.9975 10.517 25.9922C11.5265 26.0097 13.3195 25.9922 13.3195 25.9922H17.7432L18.8966 24.5081Z" fill="#011C40"/>
</symbol><symbol id="icon-ship2" viewBox="0 0 42 52">
<g id="surface1">
<path style=" stroke:none;fill-rule:nonzero;fill:rgb(0.392157%,10.980392%,25.098039%);fill-opacity:1;" d="M 6.851562 26.644531 L 20.558594 16.144531 C 20.871094 15.933594 21.265625 15.933594 21.578125 16.144531 L 35.351562 26.644531 L 35.351562 14.117188 C 35.425781 12.402344 34.183594 10.941406 32.574219 10.863281 C 32.546875 10.863281 32.523438 10.859375 32.5 10.859375 L 9.703125 10.859375 C 8.09375 10.898438 6.816406 12.324219 6.851562 14.042969 C 6.851562 14.066406 6.851562 14.09375 6.851562 14.117188 Z M 6.851562 26.644531 "/>
<path style=" stroke:none;fill-rule:nonzero;fill:rgb(0.392157%,10.980392%,25.098039%);fill-opacity:1;" d="M 24.496094 0 L 17.710938 0 L 17.710938 8.6875 L 24.496094 8.6875 Z M 24.496094 0 "/>
<path style=" stroke:none;fill-rule:nonzero;fill:rgb(0.392157%,10.980392%,25.098039%);fill-opacity:1;" d="M 37.792969 49.015625 L 42 34.171875 L 36.097656 29.757812 L 35.691406 29.539062 L 21.78125 19.1875 L 21.78125 49.738281 L 21.035156 49.738281 L 19.746094 49.667969 L 19.746094 19.1875 L 0 34.171875 L 4.34375 48.945312 L 6.851562 51.984375 C 6.851562 51.984375 8.964844 51.984375 11.136719 51.984375 C 11.136719 51.984375 19.050781 51.996094 21.035156 51.984375 C 23.054688 52.019531 26.640625 51.984375 26.640625 51.984375 L 35.488281 51.984375 Z M 37.792969 49.015625 "/>
</g>
</symbol><symbol id="icon-tw" viewBox="0 0 20 17">
<path d="M19.999 2.42905C19.2689 2.76016 18.4947 2.97761 17.7019 3.07421C18.5375 2.56184 19.1629 1.75547 19.4616 0.805372C18.6774 1.28385 17.8176 1.61917 16.9215 1.80056C16.3196 1.14028 15.5217 0.702385 14.652 0.554941C13.7823 0.407498 12.8895 0.558771 12.1123 0.985244C11.3351 1.41172 10.7171 2.0895 10.3543 2.91321C9.99163 3.73692 9.90451 4.66042 10.1065 5.54013C8.51623 5.45841 6.96046 5.03471 5.54024 4.29654C4.12002 3.55838 2.86709 2.52225 1.8628 1.25541C1.50731 1.8814 1.32051 2.59302 1.3215 3.31737C1.3215 4.73907 2.02729 5.99507 3.10032 6.73043C2.46531 6.70994 1.84428 6.53412 1.28899 6.21764V6.26863C1.28918 7.21548 1.60876 8.13313 2.19355 8.86599C2.77834 9.59884 3.59234 10.1018 4.49754 10.2896C3.90806 10.4534 3.28997 10.4775 2.69004 10.3602C2.94526 11.1752 3.4427 11.888 4.1127 12.3987C4.78271 12.9095 5.59173 13.1926 6.4265 13.2085C5.59685 13.8765 4.6469 14.3703 3.63098 14.6617C2.61505 14.9531 1.55306 15.0364 0.505737 14.9067C2.33399 16.1121 4.46225 16.7521 6.63594 16.75C13.9931 16.75 18.0165 10.5014 18.0165 5.08224C18.0165 4.90575 18.0117 4.72731 18.0041 4.55278C18.7872 3.9725 19.4631 3.25366 20 2.43003L19.999 2.42905Z"/>
</symbol></svg>