<?xml version="1.0" encoding="UTF-8"?>
<svg xmlns="http://www.w3.org/2000/svg" xmlns:xlink="http://www.w3.org/1999/xlink" width="42px" height="52px" viewBox="0 0 42 52" version="1.1">
<g id="surface1">
<path style=" stroke:none;fill-rule:nonzero;fill:rgb(0.392157%,10.980392%,25.098039%);fill-opacity:1;" d="M 6.851562 26.644531 L 20.558594 16.144531 C 20.871094 15.933594 21.265625 15.933594 21.578125 16.144531 L 35.351562 26.644531 L 35.351562 14.117188 C 35.425781 12.402344 34.183594 10.941406 32.574219 10.863281 C 32.546875 10.863281 32.523438 10.859375 32.5 10.859375 L 9.703125 10.859375 C 8.09375 10.898438 6.816406 12.324219 6.851562 14.042969 C 6.851562 14.066406 6.851562 14.09375 6.851562 14.117188 Z M 6.851562 26.644531 "/>
<path style=" stroke:none;fill-rule:nonzero;fill:rgb(0.392157%,10.980392%,25.098039%);fill-opacity:1;" d="M 24.496094 0 L 17.710938 0 L 17.710938 8.6875 L 24.496094 8.6875 Z M 24.496094 0 "/>
<path style=" stroke:none;fill-rule:nonzero;fill:rgb(0.392157%,10.980392%,25.098039%);fill-opacity:1;" d="M 37.792969 49.015625 L 42 34.171875 L 36.097656 29.757812 L 35.691406 29.539062 L 21.78125 19.1875 L 21.78125 49.738281 L 21.035156 49.738281 L 19.746094 49.667969 L 19.746094 19.1875 L 0 34.171875 L 4.34375 48.945312 L 6.851562 51.984375 C 6.851562 51.984375 8.964844 51.984375 11.136719 51.984375 C 11.136719 51.984375 19.050781 51.996094 21.035156 51.984375 C 23.054688 52.019531 26.640625 51.984375 26.640625 51.984375 L 35.488281 51.984375 Z M 37.792969 49.015625 "/>
</g>
</svg>
